<?xml version="1.0" encoding="UTF-8" standalone="no"?>
<svg width="40px" height="36px" viewBox="0 0 40 36" version="1.1" xmlns="http://www.w3.org/2000/svg" xmlns:xlink="http://www.w3.org/1999/xlink" xmlns:sketch="http://www.bohemiancoding.com/sketch/ns">
    <!-- Generator: Sketch 3.0.2 (7799) - http://www.bohemiancoding.com/sketch -->
    <title>Imported Layers 2</title>
    <description>Created with Sketch.</description>
    <defs></defs>
    <g id="Page-1" stroke="none" stroke-width="1" fill="none" fill-rule="evenodd" sketch:type="MSPage">
        <g id="Imported-Layers-2" sketch:type="MSLayerGroup">
            <path d="M0,24 L0,36 L10,30 L0,24" id="Fill-1" fill="#9AB69D" sketch:type="MSShapeGroup"></path>
            <path d="M10,18 L0,23.9990584 L10,30 L10,18" id="Fill-2" fill="#ACC8AB" sketch:type="MSShapeGroup"></path>
            <path d="M0,24 L10,18.0009416 L0,12 L0,24" id="Fill-3" fill="#BDD8B7" sketch:type="MSShapeGroup"></path>
            <path d="M10,6 L10,18 L20,12.0001883 L10,6" id="Fill-4" fill="#BDD8B7" sketch:type="MSShapeGroup"></path>
            <path d="M0,0 L0,12 L10,5.99905847 L0,0" id="Fill-5" fill="#9AB69D" sketch:type="MSShapeGroup"></path>
            <path d="M10,18.0009416 L19.9982912,24 L30,18.0009416 L19.9982912,12 L10,18.0009416" id="Fill-6" fill="#9AB69D" sketch:type="MSShapeGroup"></path>
            <path d="M40,0 L30,5.99905847 L40,12 L40,0" id="Fill-7" fill="#9AB69D" sketch:type="MSShapeGroup"></path>
            <path d="M0,12.0001883 L10,18 L10,6 L0,12.0001883" id="Fill-8" fill="#ACC8AB" sketch:type="MSShapeGroup"></path>
            <path d="M30,6 L30,18 L40,12.0001883 L30,6" id="Fill-9" fill="#ACC8AB" sketch:type="MSShapeGroup"></path>
            <path d="M20,12.0001883 L30,18 L30,6 L20,12.0001883" id="Fill-10" fill="#BDD8B7" sketch:type="MSShapeGroup"></path>
            <path d="M30,18.0009416 L40,24 L40,12 L30,18.0009416" id="Fill-11" fill="#BDD8B7" sketch:type="MSShapeGroup"></path>
            <path d="M30,30 L40,36 L40,24 L30,30" id="Fill-12" fill="#9AB69D" sketch:type="MSShapeGroup"></path>
            <path d="M30,18 L30,30 L40,23.9990584 L30,18" id="Fill-13" fill="#ACC8AB" sketch:type="MSShapeGroup"></path>
        </g>
    </g>
</svg>